<?xml version="1.0" encoding="UTF-8" standalone="no"?>
<!DOCTYPE svg PUBLIC "-//W3C//DTD SVG 1.1//EN"
 "http://www.w3.org/Graphics/SVG/1.1/DTD/svg11.dtd">
<!-- Generated by graphviz version 2.47.0 (20210316.0004)
 -->
<!-- Title: dependencies Pages: 1 -->
<svg width="706pt" height="355pt"
 viewBox="0.00 0.00 706.00 355.00" xmlns="http://www.w3.org/2000/svg" xmlns:xlink="http://www.w3.org/1999/xlink">
<g id="graph0" class="graph" transform="scale(1 1) rotate(0) translate(4 351)">
<title>dependencies</title>
<polygon fill="white" stroke="transparent" points="-4,4 -4,-351 702,-351 702,4 -4,4"/>
<text text-anchor="start" x="328.01" y="-42.4" font-family="Times-12" font-weight="bold" font-size="14.00">Legend</text>
<polygon fill="#ffffb3" stroke="transparent" points="115,-10 115,-30 135,-30 135,-10 115,-10"/>
<text text-anchor="start" x="138.63" y="-15.4" font-family="Times-12" font-size="14.00"> &#160;Declarations</text>
<polygon fill="#8dd3c7" stroke="transparent" points="228,-10 228,-30 248,-30 248,-10 228,-10"/>
<text text-anchor="start" x="251.73" y="-15.4" font-family="Times-12" font-size="14.00"> &#160;Module</text>
<polygon fill="#80b1d3" stroke="transparent" points="314,-10 314,-30 334,-30 334,-10 314,-10"/>
<text text-anchor="start" x="337.78" y="-15.4" font-family="Times-12" font-size="14.00"> &#160;Bootstrap</text>
<polygon fill="#fdb462" stroke="transparent" points="411,-10 411,-30 431,-30 431,-10 411,-10"/>
<text text-anchor="start" x="434.67" y="-15.4" font-family="Times-12" font-size="14.00"> &#160;Providers</text>
<polygon fill="#fb8072" stroke="transparent" points="507,-10 507,-30 527,-30 527,-10 507,-10"/>
<text text-anchor="start" x="530.73" y="-15.4" font-family="Times-12" font-size="14.00"> &#160;Exports</text>
<g id="clust19" class="cluster">
<title>cluster_UsersModule</title>
<polygon fill="none" stroke="black" stroke-dasharray="1,5" points="8,-70 8,-282 156,-282 156,-70 8,-70"/>
</g>
<g id="clust22" class="cluster">
<title>cluster_UsersModule_exports</title>
<polygon fill="none" stroke="black" points="28,-222 28,-274 132,-274 132,-222 28,-222"/>
</g>
<g id="clust24" class="cluster">
<title>cluster_UsersModule_providers</title>
<polygon fill="none" stroke="black" points="16,-78 16,-130 148,-130 148,-78 16,-78"/>
</g>
<g id="clust1" class="cluster">
<title>cluster_AppModule</title>
<polygon fill="none" stroke="black" stroke-dasharray="1,5" points="164,-214 164,-339 529,-339 529,-214 164,-214"/>
</g>
<g id="clust3" class="cluster">
<title>cluster_AppModule_imports</title>
<polygon fill="none" stroke="black" points="310,-222 310,-274 521,-274 521,-222 310,-222"/>
</g>
<g id="clust6" class="cluster">
<title>cluster_AppModule_providers</title>
<polygon fill="none" stroke="black" points="172,-222 172,-274 302,-274 302,-222 172,-222"/>
</g>
<g id="clust7" class="cluster">
<title>cluster_AuthModule</title>
<polygon fill="none" stroke="black" stroke-dasharray="1,5" points="266,-138 266,-206 530,-206 530,-138 266,-138"/>
</g>
<g id="clust10" class="cluster">
<title>cluster_AuthModule_exports</title>
<polygon fill="none" stroke="black" points="416,-146 416,-198 522,-198 522,-146 416,-146"/>
</g>
<g id="clust12" class="cluster">
<title>cluster_AuthModule_providers</title>
<polygon fill="none" stroke="black" points="274,-146 274,-198 408,-198 408,-146 274,-146"/>
</g>
<g id="clust13" class="cluster">
<title>cluster_PostsModule</title>
<polygon fill="none" stroke="black" stroke-dasharray="1,5" points="538,-138 538,-206 690,-206 690,-138 538,-138"/>
</g>
<g id="clust18" class="cluster">
<title>cluster_PostsModule_providers</title>
<polygon fill="none" stroke="black" points="546,-146 546,-198 682,-198 682,-146 546,-146"/>
</g>
<!-- AuthModule -->
<g id="node1" class="node">
<title>AuthModule</title>
<polygon fill="#8dd3c7" stroke="black" points="512.55,-266 509.55,-270 488.55,-270 485.55,-266 425.45,-266 425.45,-230 512.55,-230 512.55,-266"/>
<text text-anchor="middle" x="469" y="-243.8" font-family="Times,serif" font-size="14.00">AuthModule</text>
</g>
<!-- AppModule -->
<g id="node4" class="node">
<title>AppModule</title>
<polygon fill="#8dd3c7" stroke="black" points="341.66,-331 338.66,-335 317.66,-335 314.66,-331 258.34,-331 258.34,-295 341.66,-295 341.66,-331"/>
<text text-anchor="middle" x="300" y="-308.8" font-family="Times,serif" font-size="14.00">AppModule</text>
</g>
<!-- AuthModule&#45;&gt;AppModule -->
<g id="edge1" class="edge">
<title>AuthModule&#45;&gt;AppModule</title>
<path fill="none" stroke="black" d="M469,-266.11C469,-285.34 469,-313 469,-313 469,-313 351.78,-313 351.78,-313"/>
<polygon fill="black" stroke="black" points="351.78,-309.5 341.78,-313 351.78,-316.5 351.78,-309.5"/>
</g>
<!-- AuthService  -->
<g id="node6" class="node">
<title>AuthService </title>
<polygon fill="#fb8072" stroke="black" points="513.98,-190 424.02,-190 424.02,-154 513.98,-154 513.98,-190"/>
<text text-anchor="middle" x="469" y="-167.8" font-family="Times,serif" font-size="14.00">AuthService </text>
</g>
<!-- AuthModule&#45;&gt;AuthService  -->
<g id="edge5" class="edge">
<title>AuthModule&#45;&gt;AuthService </title>
<path fill="none" stroke="black" stroke-dasharray="5,2" d="M469,-229.99C469,-229.99 469,-200.15 469,-200.15"/>
<polygon fill="black" stroke="black" points="472.5,-200.15 469,-190.15 465.5,-200.15 472.5,-200.15"/>
</g>
<!-- PostsModule -->
<g id="node2" class="node">
<title>PostsModule</title>
<polygon fill="#8dd3c7" stroke="black" points="407.61,-266 404.61,-270 383.61,-270 380.61,-266 318.39,-266 318.39,-230 407.61,-230 407.61,-266"/>
<text text-anchor="middle" x="363" y="-243.8" font-family="Times,serif" font-size="14.00">PostsModule</text>
</g>
<!-- PostsModule&#45;&gt;AppModule -->
<g id="edge2" class="edge">
<title>PostsModule&#45;&gt;AppModule</title>
<path fill="none" stroke="black" d="M330.14,-266.11C330.14,-266.11 330.14,-284.99 330.14,-284.99"/>
<polygon fill="black" stroke="black" points="326.64,-284.99 330.14,-294.99 333.64,-284.99 326.64,-284.99"/>
</g>
<!-- UsersModule -->
<g id="node3" class="node">
<title>UsersModule</title>
<polygon fill="#8dd3c7" stroke="black" points="137.92,-190 134.92,-194 113.92,-194 110.92,-190 46.08,-190 46.08,-154 137.92,-154 137.92,-190"/>
<text text-anchor="middle" x="92" y="-167.8" font-family="Times,serif" font-size="14.00">UsersModule</text>
</g>
<!-- UsersModule&#45;&gt;PostsModule -->
<g id="edge7" class="edge">
<title>UsersModule&#45;&gt;PostsModule</title>
<path fill="none" stroke="black" d="M128.54,-190.24C128.54,-197.43 128.54,-204 128.54,-204 128.54,-204 359.37,-204 359.37,-204 359.37,-204 359.37,-219.85 359.37,-219.85"/>
<polygon fill="black" stroke="black" points="355.87,-219.85 359.37,-229.85 362.87,-219.85 355.87,-219.85"/>
</g>
<!-- UsersModule&#45;&gt;AppModule -->
<g id="edge3" class="edge">
<title>UsersModule&#45;&gt;AppModule</title>
<path fill="none" stroke="black" d="M133.12,-190.14C133.12,-228.23 133.12,-313 133.12,-313 133.12,-313 248.32,-313 248.32,-313"/>
<polygon fill="black" stroke="black" points="248.32,-316.5 258.32,-313 248.32,-309.5 248.32,-316.5"/>
</g>
<!-- UserService  -->
<g id="node9" class="node">
<title>UserService </title>
<polygon fill="#fb8072" stroke="black" points="123.9,-266 36.1,-266 36.1,-230 123.9,-230 123.9,-266"/>
<text text-anchor="middle" x="80" y="-243.8" font-family="Times,serif" font-size="14.00">UserService </text>
</g>
<!-- UsersModule&#45;&gt;UserService  -->
<g id="edge9" class="edge">
<title>UsersModule&#45;&gt;UserService </title>
<path fill="none" stroke="black" stroke-dasharray="5,2" d="M85.12,-190.01C85.12,-190.01 85.12,-219.85 85.12,-219.85"/>
<polygon fill="black" stroke="black" points="81.62,-219.85 85.12,-229.85 88.62,-219.85 81.62,-219.85"/>
</g>
<!-- AppService -->
<g id="node5" class="node">
<title>AppService</title>
<ellipse fill="#fdb462" stroke="black" cx="237" cy="-248" rx="56.74" ry="18"/>
<text text-anchor="middle" x="237" y="-243.8" font-family="Times,serif" font-size="14.00">AppService</text>
</g>
<!-- AppService&#45;&gt;AppModule -->
<g id="edge4" class="edge">
<title>AppService&#45;&gt;AppModule</title>
<path fill="none" stroke="black" d="M275.9,-261.15C275.9,-261.15 275.9,-284.69 275.9,-284.69"/>
<polygon fill="black" stroke="black" points="272.4,-284.69 275.9,-294.69 279.4,-284.69 272.4,-284.69"/>
</g>
<!-- AuthService -->
<g id="node7" class="node">
<title>AuthService</title>
<ellipse fill="#fdb462" stroke="black" cx="341" cy="-172" rx="59.11" ry="18"/>
<text text-anchor="middle" x="341" y="-167.8" font-family="Times,serif" font-size="14.00">AuthService</text>
</g>
<!-- AuthService&#45;&gt;AuthModule -->
<g id="edge6" class="edge">
<title>AuthService&#45;&gt;AuthModule</title>
<path fill="none" stroke="black" d="M400.39,-172C409.48,-172 415.91,-172 415.91,-172 415.91,-172 415.91,-248 415.91,-248 415.91,-248 416.83,-248 416.83,-248"/>
<polygon fill="black" stroke="black" points="415.16,-251.5 425.16,-248 415.16,-244.5 415.16,-251.5"/>
</g>
<!-- PostsService -->
<g id="node8" class="node">
<title>PostsService</title>
<ellipse fill="#fdb462" stroke="black" cx="614" cy="-172" rx="60.27" ry="18"/>
<text text-anchor="middle" x="614" y="-167.8" font-family="Times,serif" font-size="14.00">PostsService</text>
</g>
<!-- PostsService&#45;&gt;PostsModule -->
<g id="edge8" class="edge">
<title>PostsService&#45;&gt;PostsModule</title>
<path fill="none" stroke="black" d="M614,-190.04C614,-202.56 614,-217 614,-217 614,-217 403.93,-217 403.93,-217 403.93,-217 403.93,-219.97 403.93,-219.97"/>
<polygon fill="black" stroke="black" points="400.43,-219.97 403.93,-229.97 407.43,-219.97 400.43,-219.97"/>
</g>
<!-- UserService -->
<g id="node10" class="node">
<title>UserService</title>
<ellipse fill="#fdb462" stroke="black" cx="82" cy="-104" rx="58.44" ry="18"/>
<text text-anchor="middle" x="82" y="-99.8" font-family="Times,serif" font-size="14.00">UserService</text>
</g>
<!-- UserService&#45;&gt;UsersModule -->
<g id="edge10" class="edge">
<title>UserService&#45;&gt;UsersModule</title>
<path fill="none" stroke="black" d="M92,-121.87C92,-121.87 92,-143.54 92,-143.54"/>
<polygon fill="black" stroke="black" points="88.5,-143.54 92,-153.54 95.5,-143.54 88.5,-143.54"/>
</g>
</g>
</svg>
